<mxfile version="20.1.4" type="atlas">
  <diagram>
    <mxGraphModel pageHeight="859" pageWidth="629">
      <root>
        <mxCell id="0"/>
        <mxCell id="1" parent="0"/>
        <object placeholders="1" c4Name="label" c4Type="System" c4Technology="technology" c4Description="description tytter" label="&lt;html&gt;&lt;head&gt;&lt;/head&gt;&lt;body&gt;&lt;div style=&quot;font-size:16px;font-weight:bold;&quot;&gt;%c4Name%&lt;/div&gt;&lt;div&gt;[%c4Type%:%c4Technology%]&lt;/div&gt;&lt;div style=&quot;font-size:11px;color:#cccccc;&quot;&gt;%c4Description%&lt;/div&gt;&lt;/body&gt;&lt;/html&gt;" id="AX">
          <mxCell style="rounded=1;whiteSpace=wrap;html=1;labelBackgroundColor=none;fillColor=#1061B0;fontColor=#ffffff;align=center;verticalAlign=top;arcSize=10;strokeColor=#0D5091;metaEdit=1;resizable=1" parent="1" vertex="1">
            <mxGeometry as="geometry" height="335" width="387" x="103" y="44"/>
          </mxCell>
        </object>
        <object placeholders="1" c4Name="Application Integration Framework" c4Type="Container" c4Technology="ERP service" c4Description="This is also awesome" label="&lt;html&gt;&lt;head&gt;&lt;/head&gt;&lt;body&gt;&lt;div style=&quot;font-size:16px;font-weight:bold;&quot;&gt;%c4Name%&lt;/div&gt;&lt;div&gt;[%c4Type%:%c4Technology%]&lt;/div&gt;&lt;div style=&quot;font-size:11px;color:#cccccc;&quot;&gt;%c4Description%&lt;/div&gt;&lt;/body&gt;&lt;/html&gt;" id="AIF">
          <mxCell style="rounded=1;whiteSpace=wrap;html=1;fontZize=11;labelBackgroundColor=none;fillColor=#23A2D9;fontColor=#ffffff;align=center;verticalAlign=top;arcSize=10;strokeColor=#0E7DAD;metaEdit=1;resizable=1" parent="1" vertex="1">
            <mxGeometry as="geometry" height="201" width="323" x="135" y="146"/>
          </mxCell>
        </object>
        <object placeholders="1" c4Name="Microsoft Dynamics AX" c4Type="System" c4Technology="ERP system" c4Description="Description tytter" label="&lt;html&gt;&lt;head&gt;&lt;/head&gt;&lt;body&gt;&lt;div style=&quot;font-size:16px;font-weight:bold;&quot;&gt;%c4Name%&lt;/div&gt;&lt;div&gt;[%c4Type%:%c4Technology%]&lt;/div&gt;&lt;div style=&quot;font-size:11px;color:#cccccc;&quot;&gt;%c4Description%&lt;/div&gt;&lt;/body&gt;&lt;/html&gt;" id="AX2">
          <mxCell style="rounded=1;whiteSpace=wrap;html=1;labelBackgroundColor=none;fillColor=#1061B0;fontColor=#ffffff;align=center;verticalAlign=top;arcSize=10;strokeColor=#0D5091;metaEdit=1;resizable=1" parent="1" vertex="1">
            <mxGeometry as="geometry" height="303" width="371" x="252" y="440"/>
          </mxCell>
        </object>
        <object placeholders="1" c4Name="Application Integration Framework" c4Type="Container" c4Technology="ERP service" c4Description="This is also awesome" label="&lt;html&gt;&lt;head&gt;&lt;/head&gt;&lt;body&gt;&lt;div style=&quot;font-size:16px;font-weight:bold;&quot;&gt;%c4Name%&lt;/div&gt;&lt;div&gt;[%c4Type%:%c4Technology%]&lt;/div&gt;&lt;div style=&quot;font-size:11px;color:#cccccc;&quot;&gt;%c4Description%&lt;/div&gt;&lt;/body&gt;&lt;/html&gt;" id="AIF2">
          <mxCell style="rounded=1;whiteSpace=wrap;html=1;fontZize=11;labelBackgroundColor=none;fillColor=#23A2D9;fontColor=#ffffff;align=center;verticalAlign=top;arcSize=10;strokeColor=#0E7DAD;metaEdit=1;resizable=1" parent="1" vertex="1">
            <mxGeometry as="geometry" height="185" width="323" x="276" y="534"/>
          </mxCell>
        </object>
        <object placeholders="1" c4Name="Microsoft Dynamics AX" c4Type="System" c4Technology="ERP system" c4Description="This is awesome" label="&lt;html&gt;&lt;head&gt;&lt;/head&gt;&lt;body&gt;&lt;div style=&quot;font-size:16px;font-weight:bold;&quot;&gt;%c4Name%&lt;/div&gt;&lt;div&gt;[%c4Type%:%c4Technology%]&lt;/div&gt;&lt;div style=&quot;font-size:11px;color:#cccccc;&quot;&gt;%c4Description%&lt;/div&gt;&lt;/body&gt;&lt;/html&gt;" id="AX3">
          <mxCell style="rounded=1;whiteSpace=wrap;html=1;labelBackgroundColor=none;fillColor=#1061B0;fontColor=#ffffff;align=center;verticalAlign=top;arcSize=10;strokeColor=#0D5091;metaEdit=1;resizable=1" parent="1" vertex="1">
            <mxGeometry as="geometry" height="187" width="221" x="7" y="532"/>
          </mxCell>
        </object>
        <object placeholders="1" c4Name="API endpoint" c4Type="Component" c4Technology="ERP service" c4Description="This is also awesome" label="&lt;html&gt;&lt;head&gt;&lt;/head&gt;&lt;body&gt;&lt;div style=&quot;font-size:16px;font-weight:bold;&quot;&gt;%c4Name%&lt;/div&gt;&lt;div&gt;[%c4Type%:%c4Technology%]&lt;/div&gt;&lt;div style=&quot;font-size:11px;color:#cccccc;&quot;&gt;%c4Description%&lt;/div&gt;&lt;/body&gt;&lt;/html&gt;" id="END">
          <mxCell style="rounded=1;whiteSpace=wrap;html=1;labelBackgroundColor=none;fillColor=#63BEF2;fontColor=#ffffff;align=center;verticalAlign=top;arcSize=6;strokeColor=#2086C9;metaEdit=1;resizable=1" parent="1" vertex="1">
            <mxGeometry as="geometry" height="85" width="167" x="267" y="238"/>
          </mxCell>
        </object>
        <object placeholders="1" c4Name="API endpoint" c4Type="Component" c4Technology="ERP service" c4Description="This is also awesome" label="&lt;html&gt;&lt;head&gt;&lt;/head&gt;&lt;body&gt;&lt;div style=&quot;font-size:16px;font-weight:bold;&quot;&gt;%c4Name%&lt;/div&gt;&lt;div&gt;[%c4Type%:%c4Technology%]&lt;/div&gt;&lt;div style=&quot;font-size:11px;color:#cccccc;&quot;&gt;%c4Description%&lt;/div&gt;&lt;/body&gt;&lt;/html&gt;" id="END2">
          <mxCell style="rounded=1;whiteSpace=wrap;html=1;labelBackgroundColor=none;fillColor=#63BEF2;fontColor=#ffffff;align=center;verticalAlign=top;arcSize=6;strokeColor=#2086C9;metaEdit=1;resizable=1" parent="1" vertex="1">
            <mxGeometry as="geometry" height="85" width="167" x="291" y="618"/>
          </mxCell>
        </object>
        <object placeholders="1" c4Name="API endpoint" c4Type="Component" c4Technology="ERP service" c4Description="This is also awesome" label="&lt;html&gt;&lt;head&gt;&lt;/head&gt;&lt;body&gt;&lt;div style=&quot;font-size:16px;font-weight:bold;&quot;&gt;%c4Name%&lt;/div&gt;&lt;div&gt;[%c4Type%:%c4Technology%]&lt;/div&gt;&lt;div style=&quot;font-size:11px;color:#cccccc;&quot;&gt;%c4Description%&lt;/div&gt;&lt;/body&gt;&lt;/html&gt;" id="END3">
          <mxCell style="rounded=1;whiteSpace=wrap;html=1;labelBackgroundColor=none;fillColor=#63BEF2;fontColor=#ffffff;align=center;verticalAlign=top;arcSize=6;strokeColor=#2086C9;metaEdit=1;resizable=1" parent="1" vertex="1">
            <mxGeometry as="geometry" height="85" width="167" x="45" y="618"/>
          </mxCell>
        </object>
        <object placeholders="1" c4Name="Label Relation 1" c4Type="Relationship" c4Technology="Technology relation 1" c4Description="" label="&lt;html&gt;&lt;head&gt;&lt;/head&gt;&lt;body&gt;&lt;div style=&quot;text-align: left;&quot;&gt;&lt;div style=&quot;text-align: center;font-weight:bold;&quot;&gt;%c4Description%&lt;/div&gt;&lt;div style=&quot;text-align: center&quot;&gt;[%c4Technology%]&lt;/div&gt;&lt;/div&gt;&lt;/body&gt;&lt;/html&gt;">
          <mxCell style="endArrow=blockThin;html=1;fontSize=10;fontColor=#404040;strokeWidth=1;endFill=1;strokeColor=#828282;elbow=vertical;metaEdit=1;endSize=14;startSize=14;jumpStyle=arc;jumpSize=16;rounded=0;edgeStyle=orthogonalEdgeStyle;entryX=0.5;entryY=1;entryDx=0;entryDy=0" parent="1" edge="1" source="END" target="END2">
            <mxGeometry as="geometry">
              <mxPoint x="353.64" y="323.3269" as="sourcePoint"/>
              <mxPoint x="371.8529" y="610.213" as="targetPoint"/>
            </mxGeometry>
          </mxCell>
        </object>
        <object placeholders="1" c4Name="Label Relation 2" c4Type="Relationship" c4Technology="Technology relation 2" c4Description="" label="&lt;html&gt;&lt;head&gt;&lt;/head&gt;&lt;body&gt;&lt;div style=&quot;text-align: left;&quot;&gt;&lt;div style=&quot;text-align: center;font-weight:bold;&quot;&gt;%c4Description%&lt;/div&gt;&lt;div style=&quot;text-align: center&quot;&gt;[%c4Technology%]&lt;/div&gt;&lt;/div&gt;&lt;/body&gt;&lt;/html&gt;">
          <mxCell style="endArrow=blockThin;html=1;fontSize=10;fontColor=#404040;strokeWidth=1;endFill=1;strokeColor=#828282;elbow=vertical;metaEdit=1;endSize=14;startSize=14;jumpStyle=arc;jumpSize=16;rounded=0;edgeStyle=orthogonalEdgeStyle;entryX=0.5;entryY=1;entryDx=0;entryDy=0" parent="1" edge="1" source="AIF" target="END3">
            <mxGeometry as="geometry">
              <mxPoint x="140.5637" y="347.6506" as="sourcePoint"/>
              <mxPoint x="140.3596" y="353.1617" as="targetPoint"/>
            </mxGeometry>
          </mxCell>
        </object>
      </root>
    </mxGraphModel>
  </diagram>
</mxfile>